<?xml version="1.0" standalone="no"?>
<!DOCTYPE svg PUBLIC "-//W3C//DTD SVG 20010904//EN"
 "http://www.w3.org/TR/2001/REC-SVG-20010904/DTD/svg10.dtd">
<svg version="1.0" xmlns="http://www.w3.org/2000/svg"
 width="260.000000pt" height="260.000000pt" viewBox="0 0 260.000000 260.000000"
 preserveAspectRatio="xMidYMid meet">
<metadata>
Created by potrace 1.11, written by Peter Selinger 2001-2013
</metadata>
<g transform="translate(0.000000,260.000000) scale(0.100000,-0.100000)"
fill="#000000" stroke="none">
<path d="M354 1908 c-79 -38 -24 -161 56 -128 57 24 60 103 4 129 -29 13 -32
13 -60 -1z"/>
<path d="M644 1908 c-79 -38 -24 -161 56 -128 57 24 60 103 4 129 -29 13 -32
13 -60 -1z"/>
<path d="M1260 1751 c-41 -13 -104 -48 -128 -71 -35 -33 -70 -112 -82 -181 -5
-35 -10 -207 -10 -381 0 -305 1 -319 20 -338 11 -11 31 -20 45 -20 14 0 34 9
45 20 19 19 20 33 20 358 0 392 6 444 51 486 30 26 36 28 105 24 100 -5 117
-21 122 -118 l4 -70 -32 -17 c-70 -39 -96 -60 -117 -98 -27 -47 -29 -82 -8
-133 21 -49 48 -77 115 -120 96 -61 120 -89 120 -142 0 -36 -5 -52 -24 -69
-22 -21 -32 -23 -98 -18 -40 3 -83 8 -95 12 -18 6 -23 3 -29 -19 -10 -42 18
-73 81 -92 70 -20 117 -13 187 29 41 25 59 44 81 86 33 67 34 88 2 151 -26 50
-45 68 -155 142 l-65 43 -3 57 c-3 49 0 58 20 72 12 9 34 16 48 16 41 0 68 27
85 82 21 71 19 115 -9 174 -37 79 -121 134 -215 140 -31 2 -67 0 -81 -5z"/>
<path d="M2095 1686 c-156 -39 -277 -169 -315 -342 -16 -70 -13 -203 5 -275
42 -161 130 -257 274 -300 36 -11 47 -20 62 -53 10 -23 19 -56 19 -73 l0 -33
-59 0 c-41 0 -65 -5 -75 -16 -62 -62 78 -113 174 -64 40 20 70 63 70 98 0 11
-9 39 -20 63 -26 59 -25 66 13 73 53 10 152 61 175 91 25 32 28 54 9 78 -11
16 -18 15 -85 -20 -65 -33 -81 -37 -150 -38 -105 0 -142 9 -190 50 -68 59 -86
121 -86 295 0 173 16 228 87 298 38 37 53 45 108 54 92 16 165 4 235 -38 54
-33 59 -34 71 -18 45 61 -28 131 -174 169 -67 17 -81 18 -148 1z"/>
<path d="M473 1678 c-26 -12 -18 7 -193 -478 -70 -195 -133 -367 -139 -382
-13 -34 7 -58 47 -58 48 0 69 25 101 122 17 51 35 99 39 106 7 9 53 12 197 10
l189 -3 38 -105 c21 -58 46 -111 55 -117 23 -18 78 -16 97 2 17 18 29 -19
-163 515 -87 240 -139 371 -152 383 -24 19 -81 22 -116 5z m127 -347 c38 -112
70 -207 70 -212 0 -5 -67 -9 -150 -9 -82 0 -150 2 -150 5 0 10 132 390 142
408 5 10 11 17 13 15 3 -2 36 -95 75 -207z"/>
</g>
</svg>
